# xmcd
#
# Track frame offsets: 
#        150
#        23003
#        45313
#        65838
#        87876
#        118237
#        131149
#        161660
#        182216
#        210334
#        245471
#
# Disc length: 3801 seconds
#
# Revision: 0
# Processed by: cddbd v1.5.2PL0 Copyright (c) Steve Scherf et al.
# Submitted via: ExactAudioCopy v0.99pb5
#
DISCID=960ed70b
DTITLE=Mitch Laddie - Burning Bridges
DYEAR=2012
DGENRE=Blues
TTITLE0=Time Is Running Away
TTITLE1=Paper In Your Pocket
TTITLE2=Take A Bite
TTITLE3=Would You?
TTITLE4=What Are You Living For?
TTITLE5=Changing Tides and Burning Bridges
TTITLE6=Gone
TTITLE7=Gettin' It Right
TTITLE8=Inner City Blues
TTITLE9=Give You The World
TTITLE10=Mr. Johnson Revisted
EXTD=
EXTT0=
EXTT1=
EXTT2=
EXTT3=
EXTT4=
EXTT5=
EXTT6=
EXTT7=
EXTT8=
EXTT9=
EXTT10=
PLAYORDER=
